<mxfile host="app.diagrams.net" modified="2021-08-26T03:20:29.117Z" agent="5.0 (Macintosh; Intel Mac OS X 10_14_6) AppleWebKit/537.36 (KHTML, like Gecko) Chrome/92.0.4515.159 Safari/537.36" etag="Sy4p8VkaN6a5zTVhRXsp" version="14.9.9" type="github">
  <diagram id="h0Ltb3ubu5BE6TXucoJK" name="Page-1">
    <mxGraphModel dx="932" dy="527" grid="1" gridSize="10" guides="1" tooltips="1" connect="1" arrows="1" fold="1" page="1" pageScale="1" pageWidth="827" pageHeight="1169" math="0" shadow="0">
      <root>
        <mxCell id="0" />
        <mxCell id="1" parent="0" />
        <mxCell id="L57G383Xu0ex_uQmPp5W-1" value="AWS Cloud" style="points=[[0,0],[0.25,0],[0.5,0],[0.75,0],[1,0],[1,0.25],[1,0.5],[1,0.75],[1,1],[0.75,1],[0.5,1],[0.25,1],[0,1],[0,0.75],[0,0.5],[0,0.25]];outlineConnect=0;gradientColor=none;html=1;whiteSpace=wrap;fontSize=12;fontStyle=0;shape=mxgraph.aws4.group;grIcon=mxgraph.aws4.group_aws_cloud;fillColor=none;verticalAlign=top;align=left;spacingLeft=30;fontColor=#232F3E;dashed=0;" vertex="1" parent="1">
          <mxGeometry x="80" y="75" width="720" height="510" as="geometry" />
        </mxCell>
        <mxCell id="L57G383Xu0ex_uQmPp5W-21" value="Generic group" style="fillColor=none;strokeColor=#5A6C86;dashed=1;verticalAlign=top;fontStyle=0;fontColor=#5A6C86;strokeWidth=2;" vertex="1" parent="1">
          <mxGeometry x="80" y="105" width="580" height="390" as="geometry" />
        </mxCell>
        <mxCell id="L57G383Xu0ex_uQmPp5W-50" style="edgeStyle=orthogonalEdgeStyle;curved=1;rounded=0;sketch=0;orthogonalLoop=1;jettySize=auto;html=1;exitX=1;exitY=0.5;exitDx=0;exitDy=0;fontColor=#000000;" edge="1" parent="1" source="L57G383Xu0ex_uQmPp5W-46" target="L57G383Xu0ex_uQmPp5W-28">
          <mxGeometry relative="1" as="geometry" />
        </mxCell>
        <mxCell id="L57G383Xu0ex_uQmPp5W-46" value="Service Permission list" style="fillColor=none;strokeColor=#5A6C86;verticalAlign=top;fontStyle=0;fontColor=#5A6C86;" vertex="1" parent="1">
          <mxGeometry x="100" y="119" width="212" height="201" as="geometry" />
        </mxCell>
        <mxCell id="L57G383Xu0ex_uQmPp5W-7" value="Infra Resource" style="fillColor=none;strokeColor=#5A6C86;dashed=1;verticalAlign=top;fontStyle=0;fontColor=#5A6C86;strokeWidth=2;" vertex="1" parent="1">
          <mxGeometry x="80" y="495" width="720" height="90" as="geometry" />
        </mxCell>
        <mxCell id="L57G383Xu0ex_uQmPp5W-22" value="Center Resource" style="fillColor=none;strokeColor=#5A6C86;dashed=1;verticalAlign=top;fontStyle=0;fontColor=#5A6C86;strokeWidth=2;" vertex="1" parent="1">
          <mxGeometry x="80" y="415" width="580" height="80" as="geometry" />
        </mxCell>
        <mxCell id="L57G383Xu0ex_uQmPp5W-42" style="edgeStyle=orthogonalEdgeStyle;rounded=0;sketch=0;orthogonalLoop=1;jettySize=auto;html=1;entryX=0.5;entryY=1;entryDx=0;entryDy=0;entryPerimeter=0;gradientColor=#ffd966;fillColor=#fff2cc;strokeColor=#d6b656;" edge="1" parent="1" source="L57G383Xu0ex_uQmPp5W-3" target="L57G383Xu0ex_uQmPp5W-28">
          <mxGeometry relative="1" as="geometry">
            <Array as="points">
              <mxPoint x="242" y="380" />
              <mxPoint x="370" y="380" />
            </Array>
          </mxGeometry>
        </mxCell>
        <mxCell id="L57G383Xu0ex_uQmPp5W-3" value="" style="outlineConnect=0;fontColor=#ffffff;fillColor=#0050ef;strokeColor=#001DBC;dashed=0;verticalLabelPosition=bottom;verticalAlign=top;align=center;html=1;fontSize=12;fontStyle=0;aspect=fixed;pointerEvents=1;shape=mxgraph.aws4.rds_instance;" vertex="1" parent="1">
          <mxGeometry x="218" y="526" width="48" height="48" as="geometry" />
        </mxCell>
        <mxCell id="L57G383Xu0ex_uQmPp5W-44" style="edgeStyle=orthogonalEdgeStyle;rounded=0;sketch=0;orthogonalLoop=1;jettySize=auto;html=1;entryX=0.5;entryY=1;entryDx=0;entryDy=0;entryPerimeter=0;gradientColor=#ffd966;fillColor=#fff2cc;strokeColor=#d6b656;" edge="1" parent="1" source="L57G383Xu0ex_uQmPp5W-6" target="L57G383Xu0ex_uQmPp5W-28">
          <mxGeometry relative="1" as="geometry">
            <Array as="points">
              <mxPoint x="641" y="380" />
              <mxPoint x="370" y="380" />
            </Array>
          </mxGeometry>
        </mxCell>
        <mxCell id="L57G383Xu0ex_uQmPp5W-6" value="" style="outlineConnect=0;fillColor=#0050ef;strokeColor=#001DBC;dashed=0;verticalLabelPosition=bottom;verticalAlign=top;align=center;html=1;fontSize=12;fontStyle=0;aspect=fixed;pointerEvents=1;shape=mxgraph.aws4.lambda_function;fontColor=#ffffff;" vertex="1" parent="1">
          <mxGeometry x="617" y="526" width="48" height="48" as="geometry" />
        </mxCell>
        <mxCell id="L57G383Xu0ex_uQmPp5W-9" value="lambda Per List" style="shape=image;html=1;verticalAlign=top;verticalLabelPosition=bottom;labelBackgroundColor=#ffffff;imageAspect=0;aspect=fixed;image=https://cdn0.iconfinder.com/data/icons/simpline-mix/64/simpline_11-128.png" vertex="1" parent="1">
          <mxGeometry x="140" y="160" width="48" height="48" as="geometry" />
        </mxCell>
        <mxCell id="L57G383Xu0ex_uQmPp5W-25" value="" style="group" vertex="1" connectable="0" parent="1">
          <mxGeometry x="440" y="110" width="210" height="210" as="geometry" />
        </mxCell>
        <mxCell id="L57G383Xu0ex_uQmPp5W-16" value="Â APP Role" style="fillColor=none;strokeColor=#5A6C86;verticalAlign=top;fontStyle=0;fontColor=#5A6C86;" vertex="1" parent="L57G383Xu0ex_uQmPp5W-25">
          <mxGeometry y="9.329999999999998" width="200" height="200.67" as="geometry" />
        </mxCell>
        <mxCell id="L57G383Xu0ex_uQmPp5W-13" value="Lambda Policy" style="outlineConnect=0;fontColor=#232F3E;gradientColor=none;fillColor=#6CAE3E;strokeColor=none;dashed=0;verticalLabelPosition=bottom;verticalAlign=top;align=center;html=1;fontSize=12;fontStyle=0;aspect=fixed;pointerEvents=1;shape=mxgraph.aws4.policy;" vertex="1" parent="L57G383Xu0ex_uQmPp5W-25">
          <mxGeometry x="129.16617502458212" y="140" width="34.80039331366766" height="29.891838741396274" as="geometry" />
        </mxCell>
        <mxCell id="L57G383Xu0ex_uQmPp5W-14" value="S3 Policy" style="outlineConnect=0;fontColor=#232F3E;gradientColor=none;fillColor=#6CAE3E;strokeColor=none;dashed=0;verticalLabelPosition=bottom;verticalAlign=top;align=center;html=1;fontSize=12;fontStyle=0;aspect=fixed;pointerEvents=1;shape=mxgraph.aws4.policy;" vertex="1" parent="L57G383Xu0ex_uQmPp5W-25">
          <mxGeometry x="39.9961750245821" y="139.9966666666666" width="34.80039331366766" height="29.891838741396274" as="geometry" />
        </mxCell>
        <mxCell id="L57G383Xu0ex_uQmPp5W-15" value="Rds Policy" style="outlineConnect=0;fontColor=#232F3E;gradientColor=none;fillColor=#6CAE3E;strokeColor=none;dashed=0;verticalLabelPosition=bottom;verticalAlign=top;align=center;html=1;fontSize=12;fontStyle=0;aspect=fixed;pointerEvents=1;shape=mxgraph.aws4.policy;" vertex="1" parent="L57G383Xu0ex_uQmPp5W-25">
          <mxGeometry x="129.16617502458212" y="60.333333333333314" width="34.80039331366766" height="29.891838741396274" as="geometry" />
        </mxCell>
        <mxCell id="L57G383Xu0ex_uQmPp5W-10" value="" style="outlineConnect=0;fontColor=#232F3E;gradientColor=none;fillColor=#FF5252;strokeColor=none;dashed=0;verticalLabelPosition=bottom;verticalAlign=top;align=center;html=1;fontSize=12;fontStyle=0;aspect=fixed;pointerEvents=1;shape=mxgraph.aws4.role;" vertex="1" parent="L57G383Xu0ex_uQmPp5W-25">
          <mxGeometry x="176.52900688298917" width="33.47099311701083" height="18.879056047197647" as="geometry" />
        </mxCell>
        <mxCell id="L57G383Xu0ex_uQmPp5W-24" value="Aws Policy" style="outlineConnect=0;fillColor=#e51400;strokeColor=#B20000;dashed=0;verticalLabelPosition=bottom;verticalAlign=top;align=center;html=1;fontSize=12;fontStyle=0;aspect=fixed;pointerEvents=1;shape=mxgraph.aws4.policy;" vertex="1" parent="L57G383Xu0ex_uQmPp5W-25">
          <mxGeometry x="39.9961750245821" y="60.333333333333314" width="34.80039331366766" height="29.891838741396274" as="geometry" />
        </mxCell>
        <mxCell id="L57G383Xu0ex_uQmPp5W-43" style="edgeStyle=orthogonalEdgeStyle;rounded=0;sketch=0;orthogonalLoop=1;jettySize=auto;html=1;entryX=0.5;entryY=1;entryDx=0;entryDy=0;entryPerimeter=0;fillColor=#b1ddf0;strokeColor=#10739e;" edge="1" parent="1" source="L57G383Xu0ex_uQmPp5W-26" target="L57G383Xu0ex_uQmPp5W-28">
          <mxGeometry relative="1" as="geometry">
            <Array as="points">
              <mxPoint x="553" y="350" />
              <mxPoint x="370" y="350" />
            </Array>
          </mxGeometry>
        </mxCell>
        <mxCell id="L57G383Xu0ex_uQmPp5W-26" value="" style="outlineConnect=0;fontColor=#ffffff;fillColor=#60a917;strokeColor=#2D7600;dashed=0;verticalLabelPosition=bottom;verticalAlign=top;align=center;html=1;fontSize=12;fontStyle=0;aspect=fixed;pointerEvents=1;shape=mxgraph.aws4.bucket;" vertex="1" parent="1">
          <mxGeometry x="530" y="431" width="46.15" height="48" as="geometry" />
        </mxCell>
        <mxCell id="L57G383Xu0ex_uQmPp5W-34" style="edgeStyle=orthogonalEdgeStyle;rounded=0;sketch=0;orthogonalLoop=1;jettySize=auto;html=1;exitX=1;exitY=0.5;exitDx=0;exitDy=0;exitPerimeter=0;" edge="1" parent="1" source="L57G383Xu0ex_uQmPp5W-28" target="L57G383Xu0ex_uQmPp5W-24">
          <mxGeometry relative="1" as="geometry">
            <Array as="points">
              <mxPoint x="460" y="222" />
              <mxPoint x="460" y="180" />
            </Array>
          </mxGeometry>
        </mxCell>
        <mxCell id="L57G383Xu0ex_uQmPp5W-35" style="edgeStyle=orthogonalEdgeStyle;rounded=0;sketch=0;orthogonalLoop=1;jettySize=auto;html=1;exitX=1;exitY=0.5;exitDx=0;exitDy=0;exitPerimeter=0;" edge="1" parent="1" source="L57G383Xu0ex_uQmPp5W-28" target="L57G383Xu0ex_uQmPp5W-14">
          <mxGeometry relative="1" as="geometry">
            <Array as="points">
              <mxPoint x="460" y="222" />
              <mxPoint x="460" y="255" />
            </Array>
          </mxGeometry>
        </mxCell>
        <mxCell id="L57G383Xu0ex_uQmPp5W-36" style="edgeStyle=orthogonalEdgeStyle;rounded=0;sketch=0;orthogonalLoop=1;jettySize=auto;html=1;exitX=1;exitY=0.5;exitDx=0;exitDy=0;exitPerimeter=0;" edge="1" parent="1" source="L57G383Xu0ex_uQmPp5W-28" target="L57G383Xu0ex_uQmPp5W-15">
          <mxGeometry relative="1" as="geometry">
            <Array as="points">
              <mxPoint x="540" y="222" />
              <mxPoint x="540" y="180" />
            </Array>
          </mxGeometry>
        </mxCell>
        <mxCell id="L57G383Xu0ex_uQmPp5W-37" style="edgeStyle=orthogonalEdgeStyle;rounded=0;sketch=0;orthogonalLoop=1;jettySize=auto;html=1;exitX=1;exitY=0.5;exitDx=0;exitDy=0;exitPerimeter=0;" edge="1" parent="1" source="L57G383Xu0ex_uQmPp5W-28" target="L57G383Xu0ex_uQmPp5W-13">
          <mxGeometry relative="1" as="geometry">
            <Array as="points">
              <mxPoint x="540" y="222" />
              <mxPoint x="540" y="255" />
            </Array>
          </mxGeometry>
        </mxCell>
        <mxCell id="L57G383Xu0ex_uQmPp5W-28" value="" style="outlineConnect=0;dashed=0;verticalLabelPosition=bottom;verticalAlign=top;align=center;html=1;shape=mxgraph.aws3.cloudformation;fillColor=#759C3E;gradientColor=none;strokeColor=#000000;" vertex="1" parent="1">
          <mxGeometry x="345" y="193" width="50" height="53" as="geometry" />
        </mxCell>
        <mxCell id="L57G383Xu0ex_uQmPp5W-40" style="edgeStyle=orthogonalEdgeStyle;rounded=0;sketch=0;orthogonalLoop=1;jettySize=auto;html=1;fillColor=#b1ddf0;strokeColor=#10739e;" edge="1" parent="1" source="L57G383Xu0ex_uQmPp5W-23" target="L57G383Xu0ex_uQmPp5W-28">
          <mxGeometry relative="1" as="geometry">
            <Array as="points">
              <mxPoint x="160" y="350" />
              <mxPoint x="370" y="350" />
            </Array>
          </mxGeometry>
        </mxCell>
        <mxCell id="L57G383Xu0ex_uQmPp5W-52" value="Resource ID" style="edgeLabel;html=1;align=center;verticalAlign=middle;resizable=0;points=[];fontColor=#000000;" vertex="1" connectable="0" parent="L57G383Xu0ex_uQmPp5W-40">
          <mxGeometry x="0.695" y="1" relative="1" as="geometry">
            <mxPoint as="offset" />
          </mxGeometry>
        </mxCell>
        <mxCell id="L57G383Xu0ex_uQmPp5W-23" value="" style="outlineConnect=0;fontColor=#ffffff;fillColor=#60a917;strokeColor=#2D7600;dashed=0;verticalLabelPosition=bottom;verticalAlign=top;align=center;html=1;fontSize=12;fontStyle=0;aspect=fixed;pointerEvents=1;shape=mxgraph.aws4.lambda_function;" vertex="1" parent="1">
          <mxGeometry x="140" y="435.5" width="39" height="39" as="geometry" />
        </mxCell>
        <mxCell id="L57G383Xu0ex_uQmPp5W-47" value="Rds Per List" style="shape=image;html=1;verticalAlign=top;verticalLabelPosition=bottom;labelBackgroundColor=#ffffff;imageAspect=0;aspect=fixed;image=https://cdn0.iconfinder.com/data/icons/simpline-mix/64/simpline_11-128.png" vertex="1" parent="1">
          <mxGeometry x="230" y="160" width="48" height="48" as="geometry" />
        </mxCell>
        <mxCell id="L57G383Xu0ex_uQmPp5W-48" value="S3 Per List" style="shape=image;html=1;verticalAlign=top;verticalLabelPosition=bottom;labelBackgroundColor=#ffffff;imageAspect=0;aspect=fixed;image=https://cdn0.iconfinder.com/data/icons/simpline-mix/64/simpline_11-128.png" vertex="1" parent="1">
          <mxGeometry x="140" y="246" width="48" height="48" as="geometry" />
        </mxCell>
      </root>
    </mxGraphModel>
  </diagram>
</mxfile>
